<mxfile host="" modified="2021-04-12T20:16:10.242Z" agent="5.0 (Macintosh; Intel Mac OS X 10_16_0) AppleWebKit/537.36 (KHTML, like Gecko) Chrome/84.0.4147.105 Safari/537.36" etag="bSm8V7NChKLPvf1P28ph" version="14.2.7" type="embed"><diagram id="cBfWvRu1_HgAKSxvbP_i" name="Page-1"><mxGraphModel dx="1726" dy="737" grid="1" gridSize="10" guides="1" tooltips="1" connect="1" arrows="1" fold="1" page="1" pageScale="1" pageWidth="1169" pageHeight="827" math="0" shadow="0"><root><mxCell id="0"/><mxCell id="1" parent="0"/><mxCell id="2" value="&lt;font style=&quot;font-size: 18px;&quot;&gt;&lt;b style=&quot;font-size: 18px;&quot;&gt;Softwareprodukt-qualität&lt;/b&gt;&lt;/font&gt;" style="rounded=1;whiteSpace=wrap;html=1;fontFamily=Helvetica;fontSize=18;glass=1;shadow=1;" parent="1" vertex="1"><mxGeometry x="640" y="40" width="160" height="60" as="geometry"/></mxCell><mxCell id="3" value="Funktionale Eignung" style="rounded=1;whiteSpace=wrap;html=1;fontFamily=Helvetica;fontSize=15;fontStyle=1;align=center;glass=1;shadow=1;" parent="1" vertex="1"><mxGeometry x="40" y="160" width="160" height="60" as="geometry"/></mxCell><mxCell id="4" value="&lt;div style=&quot;background-color: rgb(255 , 255 , 255) ; color: rgb(8 , 8 , 8) ; font-size: 12px&quot;&gt;(funktionale) Angemessen-&lt;/div&gt;&lt;div style=&quot;background-color: rgb(255 , 255 , 255) ; color: rgb(8 , 8 , 8) ; font-size: 12px&quot;&gt;heit&lt;/div&gt;" style="text;html=1;strokeColor=none;align=left;verticalAlign=top;whiteSpace=wrap;rounded=0;fontFamily=Verdana;fontSize=12;fontStyle=0;horizontal=1;spacing=0;spacingLeft=5;" parent="1" vertex="1"><mxGeometry x="40" y="240" width="170" height="40" as="geometry"/></mxCell><mxCell id="5" value="&lt;div style=&quot;background-color: rgb(255, 255, 255); color: rgb(8, 8, 8); font-size: 12px;&quot;&gt;(funktionale) Korrektheit&lt;/div&gt;" style="text;html=1;align=left;verticalAlign=top;resizable=0;points=[];autosize=1;fontFamily=Verdana;fontSize=12;fontStyle=0;horizontal=1;spacing=0;spacingLeft=5;" parent="1" vertex="1"><mxGeometry x="40" y="280" width="170" height="20" as="geometry"/></mxCell><mxCell id="6" value="&lt;div style=&quot;background-color: rgb(255, 255, 255); color: rgb(8, 8, 8); font-size: 12px;&quot;&gt;(funktionale) Vollständigkeit&lt;/div&gt;" style="text;html=1;align=left;verticalAlign=top;resizable=0;points=[];autosize=1;fontFamily=Verdana;fontSize=12;fontStyle=0;horizontal=1;spacing=0;spacingLeft=5;" parent="1" vertex="1"><mxGeometry x="40" y="310" width="190" height="20" as="geometry"/></mxCell><mxCell id="7" value="&lt;div style=&quot;background-color: rgb(255, 255, 255); color: rgb(8, 8, 8); font-size: 15px;&quot;&gt;&lt;font style=&quot;font-size: 15px;&quot;&gt;Zuverlässigkeit&lt;/font&gt;&lt;/div&gt;" style="rounded=1;whiteSpace=wrap;html=1;align=center;fontFamily=Helvetica;fontSize=15;fontStyle=1;glass=1;shadow=1;" parent="1" vertex="1"><mxGeometry x="240" y="160" width="120" height="60" as="geometry"/></mxCell><mxCell id="8" value="&lt;div style=&quot;background-color: rgb(255, 255, 255); color: rgb(8, 8, 8); font-size: 12px;&quot;&gt;Verfügbarkeit&lt;/div&gt;" style="text;html=1;align=left;verticalAlign=top;resizable=0;points=[];autosize=1;fontFamily=Verdana;fontSize=12;fontStyle=0;horizontal=1;spacing=0;spacingLeft=5;" parent="1" vertex="1"><mxGeometry x="240" y="240" width="100" height="20" as="geometry"/></mxCell><mxCell id="9" value="&lt;div style=&quot;background-color: rgb(255, 255, 255); color: rgb(8, 8, 8); font-size: 12px;&quot;&gt;Fehlertoleranz&lt;/div&gt;" style="text;html=1;align=left;verticalAlign=top;resizable=0;points=[];autosize=1;fontFamily=Verdana;fontSize=12;fontStyle=0;horizontal=1;spacing=0;spacingLeft=5;" parent="1" vertex="1"><mxGeometry x="240" y="270" width="110" height="20" as="geometry"/></mxCell><mxCell id="10" value="&lt;div style=&quot;background-color: rgb(255, 255, 255); color: rgb(8, 8, 8); font-size: 12px;&quot;&gt;Wiederherstellbarkeit&lt;/div&gt;" style="text;html=1;align=left;verticalAlign=top;resizable=0;points=[];autosize=1;fontFamily=Verdana;fontSize=12;fontStyle=0;horizontal=1;spacing=0;spacingLeft=5;" parent="1" vertex="1"><mxGeometry x="240" y="300" width="150" height="20" as="geometry"/></mxCell><mxCell id="11" value="&lt;p style=&quot;background-color: rgb(255, 255, 255); color: rgb(8, 8, 8); font-size: 15px;&quot;&gt;Effizienz&lt;/p&gt;" style="whiteSpace=wrap;html=1;fontFamily=Helvetica;align=center;fontSize=15;fontStyle=1;rounded=1;glass=1;shadow=1;" parent="1" vertex="1"><mxGeometry x="400" y="160" width="120" height="60" as="geometry"/></mxCell><mxCell id="12" value="Zeitverhalten" style="text;align=left;verticalAlign=top;resizable=0;points=[];autosize=1;fontFamily=Verdana;fontSize=12;html=1;fontStyle=0;horizontal=1;spacing=0;spacingLeft=5;" parent="1" vertex="1"><mxGeometry x="400" y="240" width="100" height="20" as="geometry"/></mxCell><mxCell id="13" value="&lt;span style=&quot;box-sizing: border-box; line-height: inherit; color: rgba(0, 0, 0, 0.8); letter-spacing: -0.16px; background-color: rgb(255, 255, 255); font-size: 12px;&quot;&gt;&lt;font style=&quot;font-size: 12px;&quot;&gt;Ressourcenverwendung&lt;/font&gt;&lt;/span&gt;" style="text;html=1;align=left;verticalAlign=top;resizable=0;points=[];autosize=1;fontFamily=Verdana;fontSize=12;fontStyle=0;horizontal=1;spacing=0;spacingLeft=5;" parent="1" vertex="1"><mxGeometry x="400" y="270" width="160" height="20" as="geometry"/></mxCell><mxCell id="14" value="&lt;div style=&quot;background-color: rgb(255, 255, 255); color: rgb(8, 8, 8); font-size: 15px;&quot;&gt;Gebrauchs-tauglichkeit&lt;/div&gt;" style="rounded=1;whiteSpace=wrap;html=1;fontFamily=Helvetica;align=center;fontSize=15;fontStyle=1;glass=1;shadow=1;" parent="1" vertex="1"><mxGeometry x="560" y="160" width="140" height="60" as="geometry"/></mxCell><mxCell id="15" value="&lt;div style=&quot;background-color: rgb(255 , 255 , 255) ; color: rgb(8 , 8 , 8)&quot;&gt;Angemessenheits-&lt;br&gt;erkennung&lt;/div&gt;" style="text;whiteSpace=wrap;html=1;fontFamily=Verdana;verticalAlign=top;fontStyle=0;horizontal=1;spacing=0;spacingLeft=5;" parent="1" vertex="1"><mxGeometry x="560" y="240" width="180" height="40" as="geometry"/></mxCell><mxCell id="16" value="&lt;div style=&quot;background-color: rgb(255, 255, 255); color: rgb(8, 8, 8); font-size: 12px;&quot;&gt;Erlernbarkeit&lt;/div&gt;" style="text;whiteSpace=wrap;html=1;fontFamily=Verdana;align=left;fontSize=12;verticalAlign=top;fontStyle=0;horizontal=1;spacing=0;spacingLeft=5;" parent="1" vertex="1"><mxGeometry x="560" y="280" width="90" height="20" as="geometry"/></mxCell><mxCell id="17" value="&lt;div style=&quot;background-color: rgb(255, 255, 255); color: rgb(8, 8, 8); font-size: 12px;&quot;&gt;Bedienbarkeit&lt;/div&gt;" style="text;whiteSpace=wrap;html=1;fontFamily=Verdana;align=left;fontSize=12;verticalAlign=top;fontStyle=0;horizontal=1;spacing=0;spacingLeft=5;" parent="1" vertex="1"><mxGeometry x="560" y="310" width="90" height="20" as="geometry"/></mxCell><mxCell id="18" value="&lt;meta charset=&quot;utf-8&quot; style=&quot;font-size: 12px;&quot;&gt;&lt;span style=&quot;color: rgba(0, 0, 0, 0.8); font-size: 12px; font-style: normal; letter-spacing: -0.16px; text-indent: 0px; text-transform: none; word-spacing: 0px; background-color: rgb(255, 255, 255); display: inline; float: none;&quot;&gt;Nützlichkeit&lt;/span&gt;" style="text;whiteSpace=wrap;html=1;fontFamily=Verdana;align=left;fontSize=12;verticalAlign=top;fontStyle=0;horizontal=1;spacing=0;spacingLeft=5;" parent="1" vertex="1"><mxGeometry x="560" y="340" width="80" height="20" as="geometry"/></mxCell><mxCell id="19" value="&lt;div style=&quot;background-color: rgb(255 , 255 , 255) ; color: rgb(8 , 8 , 8) ; font-size: 12px&quot;&gt;Ästetik der Benutzungs-&lt;/div&gt;&lt;div style=&quot;background-color: rgb(255 , 255 , 255) ; color: rgb(8 , 8 , 8) ; font-size: 12px&quot;&gt;schnittstelle&lt;/div&gt;" style="text;whiteSpace=wrap;html=1;fontFamily=Verdana;align=left;fontSize=12;verticalAlign=top;fontStyle=0;horizontal=1;spacing=0;spacingLeft=5;" parent="1" vertex="1"><mxGeometry x="560" y="370" width="150" height="40" as="geometry"/></mxCell><mxCell id="20" value="&lt;div style=&quot;background-color: rgb(255, 255, 255); color: rgb(8, 8, 8); font-size: 12px;&quot;&gt;Barrierefreiheit&lt;/div&gt;" style="text;whiteSpace=wrap;html=1;fontFamily=Verdana;align=left;fontSize=12;verticalAlign=top;fontStyle=0;horizontal=1;spacing=0;spacingLeft=5;" parent="1" vertex="1"><mxGeometry x="560" y="410" width="100" height="20" as="geometry"/></mxCell><mxCell id="21" value="&lt;div style=&quot;background-color: rgb(255, 255, 255); color: rgb(8, 8, 8); font-size: 15px;&quot;&gt;Sicherheit&lt;/div&gt;" style="rounded=1;whiteSpace=wrap;html=1;fontFamily=Helvetica;align=center;fontSize=15;fontStyle=1;glass=1;shadow=1;" parent="1" vertex="1"><mxGeometry x="740" y="160" width="120" height="60" as="geometry"/></mxCell><mxCell id="22" value="&lt;div style=&quot;background-color: rgb(255, 255, 255); color: rgb(8, 8, 8); font-size: 12px;&quot;&gt;Vertraulichkeit&lt;/div&gt;" style="text;html=1;align=left;verticalAlign=top;resizable=0;points=[];autosize=1;fontFamily=Verdana;fontSize=12;fontStyle=0;horizontal=1;spacing=0;spacingLeft=5;" parent="1" vertex="1"><mxGeometry x="740" y="240" width="110" height="20" as="geometry"/></mxCell><mxCell id="23" value="&lt;div style=&quot;background-color: rgb(255, 255, 255); color: rgb(8, 8, 8); font-size: 12px;&quot;&gt;Integrität&lt;/div&gt;" style="text;whiteSpace=wrap;html=1;fontFamily=Verdana;align=left;fontSize=12;verticalAlign=top;fontStyle=0;horizontal=1;spacing=0;spacingLeft=5;" parent="1" vertex="1"><mxGeometry x="740" y="270" width="100" height="20" as="geometry"/></mxCell><mxCell id="24" value="&lt;div style=&quot;background-color: rgb(255, 255, 255); color: rgb(8, 8, 8); font-size: 12px;&quot;&gt;Nachweisbarkeit&lt;/div&gt;" style="text;whiteSpace=wrap;html=1;fontFamily=Verdana;align=left;fontSize=12;verticalAlign=top;fontStyle=0;horizontal=1;spacing=0;spacingLeft=5;" parent="1" vertex="1"><mxGeometry x="740" y="300" width="130" height="20" as="geometry"/></mxCell><mxCell id="25" value="&lt;div style=&quot;background-color: rgb(255, 255, 255); color: rgb(8, 8, 8); font-size: 12px;&quot;&gt;Zurechenbarkeit&lt;/div&gt;" style="text;whiteSpace=wrap;html=1;fontFamily=Verdana;align=left;fontSize=12;verticalAlign=top;fontStyle=0;horizontal=1;spacing=0;spacingLeft=5;" parent="1" vertex="1"><mxGeometry x="740" y="330" width="130" height="20" as="geometry"/></mxCell><mxCell id="26" value="&lt;div style=&quot;background-color: rgb(255, 255, 255); color: rgb(8, 8, 8); font-size: 12px;&quot;&gt;Authentizität&lt;/div&gt;" style="text;whiteSpace=wrap;html=1;fontFamily=Verdana;align=left;fontSize=12;verticalAlign=top;fontStyle=0;horizontal=1;spacing=0;spacingLeft=5;" parent="1" vertex="1"><mxGeometry x="740" y="360" width="120" height="20" as="geometry"/></mxCell><mxCell id="27" value="&lt;div style=&quot;background-color: rgb(255, 255, 255); color: rgb(8, 8, 8); font-size: 15px;&quot;&gt;Kompatibilität&lt;/div&gt;" style="rounded=1;whiteSpace=wrap;html=1;fontFamily=Helvetica;align=center;fontSize=15;fontStyle=1;glass=1;shadow=1;" parent="1" vertex="1"><mxGeometry x="900" y="160" width="120" height="60" as="geometry"/></mxCell><mxCell id="28" value="&lt;div style=&quot;background-color: rgb(255, 255, 255); color: rgb(8, 8, 8); font-size: 12px;&quot;&gt;Austauschbarkeit&lt;/div&gt;" style="text;whiteSpace=wrap;html=1;fontFamily=Verdana;align=left;fontSize=12;verticalAlign=top;fontStyle=0;horizontal=1;spacing=0;spacingLeft=5;" parent="1" vertex="1"><mxGeometry x="900" y="240" width="140" height="20" as="geometry"/></mxCell><mxCell id="29" value="&lt;div style=&quot;background-color: rgb(255, 255, 255); color: rgb(8, 8, 8); font-size: 12px;&quot;&gt;Koexistenz&lt;/div&gt;" style="text;whiteSpace=wrap;html=1;fontFamily=Verdana;align=left;fontSize=12;verticalAlign=top;fontStyle=0;horizontal=1;spacing=0;spacingLeft=5;" parent="1" vertex="1"><mxGeometry x="900" y="270" width="100" height="20" as="geometry"/></mxCell><mxCell id="30" value="&lt;div style=&quot;background-color: rgb(255, 255, 255); color: rgb(8, 8, 8); font-size: 12px;&quot;&gt;Interoperabilität&lt;/div&gt;" style="text;whiteSpace=wrap;html=1;fontFamily=Verdana;align=left;fontSize=12;verticalAlign=top;fontStyle=0;horizontal=1;spacing=0;spacingLeft=5;" parent="1" vertex="1"><mxGeometry x="900" y="300" width="150" height="20" as="geometry"/></mxCell><mxCell id="31" value="&lt;div style=&quot;background-color: rgb(255, 255, 255); color: rgb(8, 8, 8); font-size: 15px;&quot;&gt;Wartbarkeit&lt;/div&gt;" style="rounded=1;whiteSpace=wrap;html=1;fontFamily=Helvetica;align=center;fontSize=15;fontStyle=1;glass=1;shadow=1;" parent="1" vertex="1"><mxGeometry x="1060" y="160" width="120" height="60" as="geometry"/></mxCell><mxCell id="32" value="&lt;div style=&quot;background-color: rgb(255, 255, 255); color: rgb(8, 8, 8); font-size: 12px;&quot;&gt;Modularität&lt;/div&gt;" style="text;whiteSpace=wrap;html=1;fontFamily=Verdana;align=left;fontSize=12;verticalAlign=top;fontStyle=0;horizontal=1;spacing=0;spacingLeft=5;" parent="1" vertex="1"><mxGeometry x="1060" y="240" width="100" height="20" as="geometry"/></mxCell><mxCell id="33" value="&lt;div style=&quot;background-color: rgb(255, 255, 255); color: rgb(8, 8, 8); font-size: 12px;&quot;&gt;Wiederverwendbarkeit&lt;/div&gt;" style="text;whiteSpace=wrap;html=1;fontFamily=Verdana;align=left;fontSize=12;verticalAlign=top;fontStyle=0;horizontal=1;spacing=0;spacingLeft=5;" parent="1" vertex="1"><mxGeometry x="1060" y="270" width="170" height="20" as="geometry"/></mxCell><mxCell id="34" value="&lt;div style=&quot;background-color: rgb(255, 255, 255); color: rgb(8, 8, 8); font-size: 12px;&quot;&gt;Analysierbarkeit&lt;/div&gt;" style="text;whiteSpace=wrap;html=1;fontFamily=Verdana;align=left;fontSize=12;verticalAlign=top;fontStyle=0;horizontal=1;spacing=0;spacingLeft=5;" parent="1" vertex="1"><mxGeometry x="1060" y="300" width="140" height="20" as="geometry"/></mxCell><mxCell id="35" value="&lt;div style=&quot;background-color: rgb(255, 255, 255); color: rgb(8, 8, 8); font-size: 12px;&quot;&gt;Änderbarkeit&lt;/div&gt;" style="text;whiteSpace=wrap;html=1;fontFamily=Verdana;align=left;fontSize=12;verticalAlign=top;fontStyle=0;horizontal=1;spacing=0;spacingLeft=5;" parent="1" vertex="1"><mxGeometry x="1060" y="330" width="110" height="20" as="geometry"/></mxCell><mxCell id="36" value="&lt;div style=&quot;background-color: rgb(255, 255, 255); color: rgb(8, 8, 8); font-size: 12px;&quot;&gt;Änderungsstabilität&lt;/div&gt;" style="text;html=1;align=left;verticalAlign=top;resizable=0;points=[];autosize=1;fontFamily=Verdana;fontSize=12;fontStyle=0;horizontal=1;spacing=0;spacingLeft=5;" parent="1" vertex="1"><mxGeometry x="1060" y="360" width="140" height="20" as="geometry"/></mxCell><mxCell id="37" value="&lt;div style=&quot;background-color: rgb(255, 255, 255); color: rgb(8, 8, 8); font-size: 12px;&quot;&gt;Testbarkeit&lt;/div&gt;" style="text;whiteSpace=wrap;html=1;fontFamily=Verdana;align=left;fontSize=12;verticalAlign=top;fontStyle=0;horizontal=1;spacing=0;spacingLeft=5;" parent="1" vertex="1"><mxGeometry x="1060" y="390" width="100" height="20" as="geometry"/></mxCell><mxCell id="38" value="&lt;div style=&quot;background-color: rgb(255, 255, 255); color: rgb(8, 8, 8); font-size: 15px;&quot;&gt;Übertragbarkeit&lt;/div&gt;" style="rounded=1;whiteSpace=wrap;html=1;fontFamily=Helvetica;align=center;fontSize=15;fontStyle=1;glass=1;shadow=1;" parent="1" vertex="1"><mxGeometry x="1220" y="160" width="120" height="60" as="geometry"/></mxCell><mxCell id="39" value="&lt;div style=&quot;background-color: rgb(255, 255, 255); color: rgb(8, 8, 8); font-size: 12px;&quot;&gt;Portabilität&lt;/div&gt;" style="text;html=1;align=left;verticalAlign=top;resizable=0;points=[];autosize=1;fontFamily=Verdana;fontSize=12;fontStyle=0;horizontal=1;spacing=0;spacingLeft=5;" parent="1" vertex="1"><mxGeometry x="1220" y="240" width="90" height="20" as="geometry"/></mxCell><mxCell id="40" value="&lt;div style=&quot;background-color: rgb(255, 255, 255); color: rgb(8, 8, 8); font-size: 12px;&quot;&gt;Anpassbarkeit&lt;/div&gt;" style="text;whiteSpace=wrap;html=1;fontFamily=Verdana;align=left;fontSize=12;verticalAlign=top;fontStyle=0;horizontal=1;spacing=0;spacingLeft=5;" parent="1" vertex="1"><mxGeometry x="1220" y="270" width="120" height="20" as="geometry"/></mxCell><mxCell id="41" value="&lt;div style=&quot;background-color: rgb(255, 255, 255); color: rgb(8, 8, 8); font-size: 12px;&quot;&gt;Installierbarkeit&lt;/div&gt;" style="text;whiteSpace=wrap;html=1;fontFamily=Verdana;align=left;fontSize=12;verticalAlign=top;fontStyle=0;horizontal=1;spacing=0;spacingLeft=5;" parent="1" vertex="1"><mxGeometry x="1220" y="300" width="150" height="20" as="geometry"/></mxCell><mxCell id="42" value="&lt;div style=&quot;background-color: rgb(255, 255, 255); color: rgb(8, 8, 8); font-size: 12px;&quot;&gt;Ersetzbarkeit&lt;/div&gt;" style="text;whiteSpace=wrap;html=1;fontFamily=Verdana;align=left;fontSize=12;verticalAlign=top;fontStyle=0;horizontal=1;spacing=0;spacingLeft=5;" parent="1" vertex="1"><mxGeometry x="1220" y="330" width="120" height="20" as="geometry"/></mxCell><mxCell id="44" value="" style="endArrow=none;html=1;fontFamily=Verdana;" parent="1" edge="1"><mxGeometry width="50" height="50" relative="1" as="geometry"><mxPoint x="60" y="120" as="sourcePoint"/><mxPoint x="1240" y="120" as="targetPoint"/></mxGeometry></mxCell><mxCell id="45" value="" style="endArrow=none;html=1;fontFamily=Verdana;" parent="1" edge="1"><mxGeometry width="50" height="50" relative="1" as="geometry"><mxPoint x="60" y="160" as="sourcePoint"/><mxPoint x="60" y="120" as="targetPoint"/></mxGeometry></mxCell><mxCell id="46" value="" style="endArrow=none;html=1;fontFamily=Verdana;" parent="1" edge="1"><mxGeometry width="50" height="50" relative="1" as="geometry"><mxPoint x="260" y="160" as="sourcePoint"/><mxPoint x="260" y="120" as="targetPoint"/></mxGeometry></mxCell><mxCell id="48" value="" style="endArrow=none;html=1;fontFamily=Verdana;" parent="1" edge="1"><mxGeometry width="50" height="50" relative="1" as="geometry"><mxPoint x="420" y="160" as="sourcePoint"/><mxPoint x="420" y="120" as="targetPoint"/></mxGeometry></mxCell><mxCell id="49" value="" style="endArrow=none;html=1;fontFamily=Verdana;fontStyle=1" parent="1" edge="1"><mxGeometry width="50" height="50" relative="1" as="geometry"><mxPoint x="579.5" y="160" as="sourcePoint"/><mxPoint x="579.5" y="120" as="targetPoint"/></mxGeometry></mxCell><mxCell id="50" value="" style="endArrow=none;html=1;fontFamily=Verdana;fontStyle=1" parent="1" edge="1"><mxGeometry width="50" height="50" relative="1" as="geometry"><mxPoint x="760" y="160" as="sourcePoint"/><mxPoint x="760" y="120" as="targetPoint"/></mxGeometry></mxCell><mxCell id="51" value="" style="endArrow=none;html=1;fontFamily=Verdana;fontStyle=1" parent="1" edge="1"><mxGeometry width="50" height="50" relative="1" as="geometry"><mxPoint x="920" y="160" as="sourcePoint"/><mxPoint x="920" y="120" as="targetPoint"/></mxGeometry></mxCell><mxCell id="52" value="" style="endArrow=none;html=1;fontFamily=Verdana;fontStyle=1" parent="1" edge="1"><mxGeometry width="50" height="50" relative="1" as="geometry"><mxPoint x="1080" y="160" as="sourcePoint"/><mxPoint x="1080" y="120" as="targetPoint"/></mxGeometry></mxCell><mxCell id="53" value="" style="endArrow=none;html=1;fontFamily=Verdana;fontStyle=1" parent="1" edge="1"><mxGeometry width="50" height="50" relative="1" as="geometry"><mxPoint x="1240" y="160" as="sourcePoint"/><mxPoint x="1240" y="120" as="targetPoint"/></mxGeometry></mxCell><mxCell id="54" value="" style="endArrow=none;html=1;fontFamily=Verdana;fontStyle=1" parent="1" edge="1"><mxGeometry width="50" height="50" relative="1" as="geometry"><mxPoint x="719.71" y="120" as="sourcePoint"/><mxPoint x="719.71" y="100" as="targetPoint"/></mxGeometry></mxCell><mxCell id="57" value="" style="endArrow=none;html=1;fontFamily=Verdana;entryX=0;entryY=1;entryDx=0;entryDy=0;strokeColor=#4D4D4D;" parent="1" target="3" edge="1"><mxGeometry width="50" height="50" relative="1" as="geometry"><mxPoint x="40" y="330" as="sourcePoint"/><mxPoint x="40" y="270" as="targetPoint"/></mxGeometry></mxCell><mxCell id="58" value="" style="endArrow=none;html=1;fontFamily=Verdana;entryX=0;entryY=1;entryDx=0;entryDy=0;strokeColor=#4D4D4D;" parent="1" edge="1"><mxGeometry width="50" height="50" relative="1" as="geometry"><mxPoint x="240.39999999999998" y="320" as="sourcePoint"/><mxPoint x="240" y="220" as="targetPoint"/></mxGeometry></mxCell><mxCell id="59" value="" style="endArrow=none;html=1;fontFamily=Verdana;strokeColor=#4D4D4D;" parent="1" edge="1"><mxGeometry width="50" height="50" relative="1" as="geometry"><mxPoint x="400.0000000000001" y="290" as="sourcePoint"/><mxPoint x="400" y="220" as="targetPoint"/></mxGeometry></mxCell><mxCell id="60" value="" style="endArrow=none;html=1;fontFamily=Verdana;entryX=0;entryY=1;entryDx=0;entryDy=0;strokeColor=#4D4D4D;exitX=0;exitY=1;exitDx=0;exitDy=0;" parent="1" source="20" target="14" edge="1"><mxGeometry width="50" height="50" relative="1" as="geometry"><mxPoint x="560" y="405" as="sourcePoint"/><mxPoint x="560" y="335" as="targetPoint"/></mxGeometry></mxCell><mxCell id="61" value="" style="endArrow=none;html=1;fontFamily=Verdana;entryX=0;entryY=1;entryDx=0;entryDy=0;strokeColor=#4D4D4D;" parent="1" target="21" edge="1"><mxGeometry width="50" height="50" relative="1" as="geometry"><mxPoint x="740" y="380" as="sourcePoint"/><mxPoint x="740" y="310" as="targetPoint"/></mxGeometry></mxCell><mxCell id="62" value="" style="endArrow=none;html=1;fontFamily=Verdana;entryX=0;entryY=1;entryDx=0;entryDy=0;strokeColor=#4D4D4D;" parent="1" target="27" edge="1"><mxGeometry width="50" height="50" relative="1" as="geometry"><mxPoint x="900" y="320" as="sourcePoint"/><mxPoint x="900" y="250" as="targetPoint"/></mxGeometry></mxCell><mxCell id="63" value="" style="endArrow=none;html=1;fontFamily=Verdana;entryX=0;entryY=1;entryDx=0;entryDy=0;strokeColor=#4D4D4D;" parent="1" target="31" edge="1"><mxGeometry width="50" height="50" relative="1" as="geometry"><mxPoint x="1060" y="410" as="sourcePoint"/><mxPoint x="1060" y="340" as="targetPoint"/></mxGeometry></mxCell><mxCell id="64" value="" style="endArrow=none;html=1;fontFamily=Verdana;entryX=0;entryY=1;entryDx=0;entryDy=0;strokeColor=#4D4D4D;" parent="1" target="38" edge="1"><mxGeometry width="50" height="50" relative="1" as="geometry"><mxPoint x="1220" y="350" as="sourcePoint"/><mxPoint x="1220" y="280" as="targetPoint"/></mxGeometry></mxCell></root></mxGraphModel></diagram></mxfile>